/* XPM */
static char *ring_0[] = {
/* columns rows colors chars-per-pixel */
"32 32 186 2 ",
"   c #3A0C0E",
".  c #2D1805",
"X  c #2D140E",
"o  c #361C06",
"O  c #290B17",
"+  c #301713",
"@  c #382700",
"#  c #32250E",
"$  c #332512",
"%  c #3B2618",
"&  c #343017",
"*  c #540D07",
"=  c #400614",
"-  c #680205",
";  c #690008",
":  c #750000",
">  c #700608",
",  c #7C000E",
"<  c #462000",
"1  c #44260E",
"2  c #412C0B",
"3  c #532C0C",
"4  c #583D03",
"5  c #56380B",
"6  c #582A10",
"7  c #672A0E",
"8  c #792F00",
"9  c #673C00",
"0  c #594400",
"q  c #5A4909",
"w  c #694605",
"e  c #634A00",
"r  c #724402",
"t  c #7B4A09",
"y  c #6F5701",
"u  c #68530D",
"i  c #795809",
"p  c #664312",
"a  c #784A10",
"s  c #745419",
"d  c #415847",
"f  c #820602",
"g  c #8E0401",
"h  c #8A0A06",
"j  c #9C0103",
"k  c #910800",
"l  c #980805",
"z  c #9C000B",
"x  c #9C090D",
"c  c #891500",
"v  c #971A00",
"b  c #991906",
"n  c #A90504",
"m  c #B70900",
"M  c #A01600",
"N  c #A91A0C",
"B  c #B41A00",
"V  c #BB140B",
"C  c #AA0010",
"Z  c #AF1410",
"A  c #A11C15",
"S  c #892D06",
"D  c #8B3608",
"F  c #B92600",
"G  c #C21002",
"H  c #CF1600",
"J  c #DD1700",
"K  c #DE1A02",
"L  c #E71E0A",
"P  c #FF1E00",
"I  c #FA1B0C",
"U  c #C3210A",
"Y  c #D52506",
"T  c #DA3B04",
"R  c #CD2E11",
"E  c #E82801",
"W  c #E22508",
"Q  c #FD2700",
"!  c #EF3800",
"~  c #F63705",
"^  c #8D4608",
"/  c #934904",
"(  c #835402",
")  c #8C5504",
"_  c #895A0A",
"`  c #945906",
"'  c #8C4E11",
"]  c #8C6303",
"[  c #8D6C00",
"{  c #896209",
"}  c #9F6B00",
"|  c #986908",
" . c #9F7607",
".. c #987800",
"X. c #8C6414",
"o. c #90611D",
"O. c #977011",
"+. c #AB6607",
"@. c #A27200",
"#. c #A87606",
"$. c #B37D03",
"%. c #AE6217",
"&. c #B36A1D",
"*. c #A27011",
"=. c #FF4201",
"-. c #F45000",
";. c #F8570F",
":. c #F94314",
">. c #FD5113",
",. c #FB7D02",
"<. c #AB8501",
"1. c #AB8805",
"2. c #B18404",
"3. c #BB8303",
"4. c #BC8F00",
"5. c #BA880D",
"6. c #B49703",
"7. c #BB9302",
"8. c #A38219",
"9. c #B78117",
"0. c #BF8410",
"q. c #AD9710",
"w. c #BB9314",
"e. c #B9A312",
"r. c #B48E21",
"t. c #A89537",
"y. c #C68D08",
"u. c #CA9207",
"i. c #C79800",
"p. c #D49B06",
"a. c #C59E10",
"s. c #CF9E13",
"d. c #D39E1A",
"f. c #FC8305",
"g. c #FA890D",
"h. c #F99803",
"j. c #F68412",
"k. c #C8A20E",
"l. c #DBA602",
"z. c #DAB303",
"x. c #DBB109",
"c. c #DCBA08",
"v. c #D8AB12",
"b. c #DDB514",
"n. c #D8BA1C",
"m. c #FBA200",
"M. c #E0B004",
"N. c #F8BB0D",
"B. c #EAB31B",
"V. c #C89829",
"C. c #CDCA03",
"Z. c #D9C00E",
"A. c #E3C400",
"S. c #EDC30B",
"D. c #F2CE06",
"F. c #F0D508",
"G. c #E8C114",
"H. c #F4CD15",
"J. c #E7D012",
"K. c #EBD512",
"L. c #E8EA0D",
"P. c #EFF408",
"I. c #FFE516",
"U. c #E5C72A",
"Y. c #FEDA24",
"T. c #FAD52B",
"R. c #F9D92C",
"E. c #E7CE34",
"W. c #F9D633",
"Q. c #FFEB25",
"!. c #F6E739",
"~. c #B99C56",
"^. c #ADA250",
"/. c #BAA357",
"(. c #FBD649",
"). c #F5E842",
"_. c #FFE752",
"`. c #DFD276",
"'. c #FAD96A",
"]. c #ECE560",
"[. c #FFE668",
"{. c #FBED69",
"}. c #EBF175",
"|. c #FBF271",
" X c #FFFB8F",
".X c #FFF095",
/* pixels */
"d d d d d d d d d d d d d d d d d d d d d d d d d d d d d d d d ",
"d d d d d d d d d d d d d d d d d d d d d d d d d d d d d d d d ",
"d d d d d d d d d d d d d d d d d d d d d d d d d d d d d d d d ",
"d d d d d d d d d d d d d d d d d d d d d d d d d d d d d d d d ",
"d d d d d d d d d d d d d d d d d d d d d d d d d d d d d d d d ",
"d d d d d d d d d d d d d d d d d d d d d d d d d d d d d d d d ",
"d d d d d d d d d d d d d d d d d d d d d d d d d d d d d d d d ",
"d d d d d d d d d d d d d d d d d d d d d d d d d d d d d d d d ",
"d d d d d d d d d d d d d d d d d d d d d d d d d d d d d d d d ",
"d d d d d d d d d d d d N ~ I n c 7 a 8 X.d d d d d d d d d d d ",
"d d d d d d d d d d A P h.K.;.x H c *.` <.| X.d d d d d d d d d ",
"d d d d d d d d d x m.L.j.T J : B h $.) C.l.p.i d d d d d d d d ",
"d d d d d d d d b h.P.,.~ =.G h l - 6.t w.F.(.x.o.d d d d d d d ",
"d d d d d d d - ,.P.f.>.! m g U Z ; B.| #.E.`.U.p.u d d d d d d ",
"d d d d d d O S f.g.-.! H f R L C S e.q 3 9 w [ O.y d d d d d d ",
"d d d d d d , j.N.Q L V f Y K k D Z.` d d p #.M.w  .r d d d d d ",
"d d d d d d * ~ :.E V k Y W C 8 !.a.5 d % ( a...6.' 0 d d d d d ",
"d d d d d d   N v j z F K C 7 !.E.p d d 0 6.A.1.z.+.0 d d d d d ",
"d d d d d d = z h v M B C D R.E.q d d $ ] <.V.2.5.$.0 d d d d d ",
"d d d d d d d v j n , > v n.B.6 d d $ 8.v.x.I.k.u.7.e d d d d d ",
"d d d d d d d / / %.%.&.$.5.5 d d . { T.Y.S.F.R.s.O.% d d d d d ",
"d d d d d d d { [ 1.q.6.u + d d X ] b.H.W.T.'.I.T.4 d d d d d d ",
"d d d d d d d ` [ _ *.[ d d d 1 ] z.!.!.c._.{.[.e.# d d d d d d ",
"d d d d d d d e y.l.Q.3.3 2 _ <.3.N.).}.Y.J.|./.o d d d d d d d ",
"d d d d d d d 2 0.i.].t.^ } @.w.G.S.H.[.{.'./.& d d d d d d d d ",
"d d d d d d d d i 7.U.*.a *.#.7.D.H.c.!. X~.@ d d d d d d d d d ",
"d d d d d d d d d w k.x.{ X.@.4.d.S.W..X^.$ d d d d d d d d d d ",
"d d d d d d d d d d s 1.a.O.{ <.#.y.9.r.< d d d d d d d d d d d ",
"d d d d d d d d d d d + i *.( ( t i @ d d d d d d d d d d d d d ",
"d d d d d d d d d d d d d d d d d d d d d d d d d d d d d d d d ",
"d d d d d d d d d d d d d d d d d d d d d d d d d d d d d d d d ",
"d d d d d d d d d d d d d d d d d d d d d d d d d d d d d d d d "
};
