/* XPM */
static char *ring_1[] = {
/* columns rows colors chars-per-pixel */
"32 32 181 2 ",
"   c #3A0C0E",
".  c #2D1805",
"X  c #2D140E",
"o  c #361C06",
"O  c #290B17",
"+  c #301713",
"@  c #382700",
"#  c #32250E",
"$  c #332512",
"%  c #3B2618",
"&  c #343017",
"*  c #540D07",
"=  c #400614",
"-  c #680205",
";  c #690008",
":  c #750000",
">  c #700608",
",  c #7C000E",
"<  c #462000",
"1  c #44260E",
"2  c #532C0C",
"3  c #583D03",
"4  c #56380B",
"5  c #672A0E",
"6  c #792F00",
"7  c #673C00",
"8  c #6B3F18",
"9  c #594400",
"0  c #5A4909",
"q  c #694605",
"w  c #634A00",
"e  c #724402",
"r  c #7B4A09",
"t  c #6F5701",
"y  c #68530D",
"u  c #795809",
"i  c #664312",
"p  c #784A10",
"a  c #745419",
"s  c #415847",
"d  c #820602",
"f  c #8E0401",
"g  c #8A0A06",
"h  c #9C0103",
"j  c #980805",
"k  c #9C000B",
"l  c #9C090D",
"z  c #891500",
"x  c #971A00",
"c  c #991906",
"v  c #A90504",
"b  c #B70900",
"n  c #A91A0C",
"m  c #B41A00",
"M  c #BB140B",
"N  c #AA0010",
"B  c #AF1410",
"V  c #A11C15",
"C  c #892D06",
"Z  c #8B3608",
"A  c #B92600",
"S  c #C21002",
"D  c #CF1600",
"F  c #DD1700",
"G  c #E71E0A",
"H  c #FA1B0C",
"J  c #D52506",
"K  c #DA3B04",
"L  c #CD2E11",
"P  c #E82801",
"I  c #E22508",
"U  c #FD2700",
"Y  c #EF3800",
"T  c #F63705",
"R  c #8D4608",
"E  c #934904",
"W  c #835402",
"Q  c #8C5504",
"!  c #895A0A",
"~  c #945906",
"^  c #8C4E11",
"/  c #8C6303",
"(  c #8D6C00",
")  c #896209",
"_  c #8A690D",
"`  c #986908",
"'  c #9F7607",
"]  c #987800",
"[  c #8C6414",
"{  c #806812",
"}  c #90611D",
"|  c #977011",
" . c #9F731A",
".. c #AB6607",
"X. c #A27200",
"o. c #A87606",
"O. c #B37D03",
"+. c #AE6217",
"@. c #B36A1D",
"#. c #A27011",
"$. c #FF4201",
"%. c #F45000",
"&. c #F8570F",
"*. c #F94314",
"=. c #FD5113",
"-. c #FB7D02",
";. c #AB8501",
":. c #AB8805",
">. c #B18404",
",. c #BB8303",
"<. c #B58C00",
"1. c #BA880D",
"2. c #B49703",
"3. c #BB9302",
"4. c #B78117",
"5. c #BF8410",
"6. c #AD9710",
"7. c #BB9314",
"8. c #B9A312",
"9. c #BFA618",
"0. c #B48E21",
"q. c #A89537",
"w. c #C68D08",
"e. c #CA9207",
"r. c #C79800",
"t. c #D49B06",
"y. c #C59E10",
"u. c #CF9E13",
"i. c #FC8305",
"p. c #FA890D",
"a. c #F99803",
"s. c #F68412",
"d. c #C8A20E",
"f. c #DBA602",
"g. c #DAB303",
"h. c #DBB109",
"j. c #DCBA08",
"k. c #D8AB12",
"l. c #DDB514",
"z. c #D8BA1C",
"x. c #F8BB0D",
"c. c #EAB31B",
"v. c #C89829",
"b. c #CDCA03",
"n. c #D9C00E",
"m. c #E3C400",
"M. c #EDC30B",
"N. c #F2CE06",
"B. c #F0D508",
"V. c #E8C114",
"C. c #F4CD15",
"Z. c #E7D012",
"A. c #EBD512",
"S. c #E8EA0D",
"D. c #EFF408",
"F. c #FFE516",
"G. c #E5C72A",
"H. c #FEDA24",
"J. c #FAD52B",
"K. c #F9D92C",
"L. c #E7CE34",
"P. c #EBD430",
"I. c #F9D633",
"U. c #FFEB25",
"Y. c #F6E739",
"T. c #B99C56",
"R. c #ADA250",
"E. c #BAA357",
"W. c #FBD649",
"Q. c #EAE242",
"!. c #F5E842",
"~. c #FFE752",
"^. c #FCED5E",
"/. c #DFD276",
"(. c #FAD96A",
"). c #ECE560",
"_. c #FBED69",
"`. c #EBF175",
"'. c #FBF271",
"]. c #FFFB8F",
"[. c #FFF095",
/* pixels */
"s s s s s s s s s s s s s s s s s s s s s s s s s s s s s s s s ",
"s s s s s s s s s s s s s s s s s s s s s s s s s s s s s s s s ",
"s s s s s s s s s s s s s s s s s s s s s s s s s s s s s s s s ",
"s s s s s s s s s s s s s s s s s s s s s s s s s s s s s s s s ",
"s s s s s s s s s s s s s s s s s s s s s s s s s s s s s s s s ",
"s s s s s s s s s s s s s s s s s s s s s s s s s s s s s s s s ",
"s s s s s s s s s s s s V T H N z 5 p 7 [ s s s s s s s s s s s ",
"s s s s s s s s s s V U a.A.&.l D z #.Q >.` [ s s s s s s s s s ",
"s s s s s s s s s l a.S.p.K F : m g O.Q b.f.t.u s s s s s s s s ",
"s s s s s s s s c a.D.-.Y $.S g j - 3.r 7.B.W.h.} s s s s s s s ",
"s s s s s s s - p.D.-.=.Y b f S B ; l.| o.L./.G.t.y s s s s s s ",
"s s s s s s O C i.p.%.Y D d L G N C d.0 2 7 q / ' t s s s s s s ",
"s s s s s s , s.x.U I M g J G f Z n.~ s s i o.g.q ' e s s s s s ",
"s s s s s s * T *.P M f J I N 6 Q.y.4 s % W y.] 3.^ 9 s s s s s ",
"s s s s s s   n x h k A G h 8 !.P.8 s s 9 <.m.:.g.` 3 s s s s s ",
"s s s s s s = k d c v A N Z J.G.q s s # / >.v.>.,.O.q s s s s s ",
"s s s s s s s x h v d > x z.c.2 s s $ #.k.h.F.d.e.r.0 s s s s s ",
"s s s s s s s E E +.+.@.1.>.4 s s . _ K.H.M.B.K.u.| $ s s s s s ",
"s s s s s s s / ( :.6.2.y + s s X / l.V.I.J.(.U.K.3 s s s s s s ",
"s s s s s s s ~ ( !  ./ s s s 1 ` g.Y.Y.j.~.^._.8.# s s s s s s ",
"s s s s s s s w w.f.U.,.2 @ [ O.<.x.!.`.H.Z.'.E.o s s s s s s s ",
"s s s s s s s % 5.r.).q.R ..X.7.c.M.C._._.(.E.& s s s s s s s s ",
"s s s s s s s s u 3.G. .p o.o.3.N.C.g.Y.].T.@ s s s s s s s s s ",
"s s s s s s s s s q d.h.{ ~ X.3.k.x.I.[.R.# s s s s s s s s s s ",
"s s s s s s s s s s a ;.9._ ) ;.O.e.4.0.< s s s s s s s s s s s ",
"s s s s s s s s s s s X { | W Q r u o s s s s s s s s s s s s s ",
"s s s s s s s s s s s s s s s s s s s s s s s s s s s s s s s s ",
"s s s s s s s s s s s s s s s s s s s s s s s s s s s s s s s s ",
"s s s s s s s s s s s s s s s s s s s s s s s s s s s s s s s s ",
"s s s s s s s s s s s s s s s s s s s s s s s s s s s s s s s s ",
"s s s s s s s s s s s s s s s s s s s s s s s s s s s s s s s s ",
"s s s s s s s s s s s s s s s s s s s s s s s s s s s s s s s s "
};
