/* XPM */
static char *ring_2[] = {
/* columns rows colors chars-per-pixel */
"32 32 186 2 ",
"   c #3A0C0E",
".  c #2D1805",
"X  c #2D140E",
"o  c #361C06",
"O  c #290B17",
"+  c #301713",
"@  c #382700",
"#  c #32250E",
"$  c #332512",
"%  c #3B2618",
"&  c #343017",
"*  c #540D07",
"=  c #680205",
"-  c #690008",
";  c #750000",
":  c #700608",
">  c #7C000E",
",  c #462000",
"<  c #44260E",
"1  c #532C0C",
"2  c #583D03",
"3  c #56380B",
"4  c #582A10",
"5  c #672A0E",
"6  c #792F00",
"7  c #6B3F18",
"8  c #594400",
"9  c #5A4909",
"0  c #694605",
"q  c #634A00",
"w  c #724402",
"e  c #7B4A09",
"r  c #6F5701",
"t  c #68530D",
"y  c #795809",
"u  c #664312",
"i  c #784A10",
"p  c #745419",
"a  c #415847",
"s  c #820602",
"d  c #8E0401",
"f  c #8A0A06",
"g  c #9C0103",
"h  c #910800",
"j  c #980805",
"k  c #9C000B",
"l  c #9C090D",
"z  c #891500",
"x  c #971A00",
"c  c #991906",
"v  c #A90504",
"b  c #B70900",
"n  c #A91A0C",
"m  c #B41A00",
"M  c #BB140B",
"N  c #AA0010",
"B  c #AF1410",
"V  c #A11C15",
"C  c #892D06",
"Z  c #8B3608",
"A  c #832E19",
"S  c #B92600",
"D  c #CC0C01",
"F  c #C21002",
"G  c #CF1600",
"H  c #DD1700",
"J  c #DE1A02",
"K  c #E71E0A",
"L  c #FF1E00",
"P  c #FA1B0C",
"I  c #C3210A",
"U  c #D52506",
"Y  c #DA3B04",
"T  c #CD2E11",
"R  c #E82801",
"E  c #FD2700",
"W  c #EF3800",
"Q  c #F63705",
"!  c #8D4608",
"~  c #934904",
"^  c #835402",
"/  c #8C5504",
"(  c #895A0A",
")  c #945906",
"_  c #8C4E11",
"`  c #8C6303",
"'  c #8D6C00",
"]  c #896209",
"[  c #8A690D",
"{  c #9F6B00",
"}  c #986908",
"|  c #987800",
" . c #8C6414",
".. c #806812",
"X. c #90611D",
"o. c #977011",
"O. c #AB6607",
"+. c #A27200",
"@. c #A87606",
"#. c #B37D03",
"$. c #AE6217",
"%. c #B36A1D",
"&. c #A27011",
"*. c #FF4201",
"=. c #F45000",
"-. c #F8570F",
";. c #F94314",
":. c #FD5113",
">. c #FB7D02",
",. c #AB8501",
"<. c #AB8805",
"1. c #BB8303",
"2. c #B58C00",
"3. c #BC8F00",
"4. c #BA880D",
"5. c #B49703",
"6. c #BB9302",
"7. c #A38219",
"8. c #B78117",
"9. c #AD9710",
"0. c #BB9314",
"q. c #B9A312",
"w. c #BFA618",
"e. c #B48E21",
"r. c #A89537",
"t. c #C68D08",
"y. c #CA9207",
"u. c #C79800",
"i. c #CE9E00",
"p. c #D49B06",
"a. c #C59E10",
"s. c #CF9E13",
"d. c #FC8305",
"f. c #FA890D",
"g. c #F99803",
"h. c #F68412",
"j. c #C8A20E",
"k. c #DBA602",
"l. c #DAB303",
"z. c #DBB109",
"x. c #DCBA08",
"c. c #D8AB12",
"v. c #DDB514",
"b. c #D8BA1C",
"n. c #FBA200",
"m. c #E0B004",
"M. c #F8BB0D",
"N. c #EAB31B",
"B. c #C89829",
"V. c #CDCA03",
"C. c #D9C00E",
"Z. c #E3C400",
"A. c #EDC30B",
"S. c #F2CE06",
"D. c #F0D508",
"F. c #E8C114",
"G. c #F4CD15",
"H. c #E7D012",
"J. c #EBD512",
"K. c #E8EA0D",
"L. c #EFF408",
"P. c #FFE516",
"I. c #E5C72A",
"U. c #FEDA24",
"Y. c #FAD52B",
"T. c #F9D92C",
"R. c #E7CE34",
"E. c #EBD430",
"W. c #F9D633",
"Q. c #FFEB25",
"!. c #F6E739",
"~. c #ADA250",
"^. c #BAA357",
"/. c #FBD649",
"(. c #EAE242",
"). c #F5E842",
"_. c #FFE752",
"`. c #DFD276",
"'. c #FAD96A",
"]. c #ECE560",
"[. c #FFE668",
"{. c #FBED69",
"}. c #EBF175",
"|. c #FBF271",
" X c #FFFB8F",
".X c #FFF095",
/* pixels */
"a a a a a a a a a a a a a a a a a a a a a a a a a a a a a a a a ",
"a a a a a a a a a a a a a a a a a a a a a a a a a a a a a a a a ",
"a a a a a a a a a a a a a a a a a a a a a a a a a a a a a a a a ",
"a a a a a a a a a a a a V E P l z 5 i w  .a a a a a a a a a a a ",
"a a a a a a a a a a V L g.J.-.l G z &./ 2.} [ a a a a a a a a a ",
"a a a a a a a a a l n.K.h.Y H ; m f #.) V.k.p.y a a a a a a a a ",
"a a a a a a a a c g.L.>.Q *.F f j = 5.e 0.G./.z.X.a a a a a a a ",
"a a a a a a a - d.L.d.:.W b d I B - v.} @.R.`.I.p.t a a a a a a ",
"a a a a a a O C d.f.=.W D f T K N Z q.9 1 0 0 ` } r a a a a a a ",
"a a a a a a > h.M.E K M f U J h Z C.) a a u O.m.0 +.w a a a a a ",
"a a a a a a * Q ;.R M d U U N 6 !.0.3 a % ^ a.| 6._ 2 a a a a a ",
"a a a a a a   n x j k S K g A (.E.u a a 8 2.Z.<.x.{ 2 a a a a a ",
"a a a a a a   k f x v m N Z T.I.9 a a $ ` ,.B.2.1.#.0 a a a a a ",
"a a a a a a a x v v s : x b.N.4 a a $ 7.c.z.P.j.y.u.8 a a a a a ",
"a a a a a a a ~ ! O.$.%.4.<.3 a a . ` Y.U.A.D.T.s.o.% a a a a a ",
"a a a a a a a ] ' <.9.5.t + a a + ` v.F.E.Y.'.Q.T.2 a a a a a a ",
"a a a a a a a ) } ( &.` a a a < ` l.!.!.x._.{.{.q.# a a a a a a ",
"a a a a a a a q 0.k.Q.1.1 @ _ ,.1.M.).}.U.H.|.^.o a a a a a a a ",
"a a a a a a a # t.u.].r._ +.+.0.F.A.G.[.{.'.^.& a a a a a a a a ",
"a a a a a a a a y 2.I.&.i @.@.6.S.G.x.!. X^.@ a a a a a a a a a ",
"a a a a a a a a a 7 i.z.] ( +.3.c.M.W..X~.$ a a a a a a a a a a ",
"a a a a a a a a a a p ,.w.} [ ,.@.4.8.e., a a a a a a a a a a a ",
"a a a a a a a a a a a X ..&.^ / e y @ a a a a a a a a a a a a a ",
"a a a a a a a a a a a a a a a a a a a a a a a a a a a a a a a a ",
"a a a a a a a a a a a a a a a a a a a a a a a a a a a a a a a a ",
"a a a a a a a a a a a a a a a a a a a a a a a a a a a a a a a a ",
"a a a a a a a a a a a a a a a a a a a a a a a a a a a a a a a a ",
"a a a a a a a a a a a a a a a a a a a a a a a a a a a a a a a a ",
"a a a a a a a a a a a a a a a a a a a a a a a a a a a a a a a a ",
"a a a a a a a a a a a a a a a a a a a a a a a a a a a a a a a a ",
"a a a a a a a a a a a a a a a a a a a a a a a a a a a a a a a a ",
"a a a a a a a a a a a a a a a a a a a a a a a a a a a a a a a a "
};
