/* XPM */
static char *e_0[] = {
/* columns rows colors chars-per-pixel */
"32 32 15 1 ",
"  c #2E1E22",
". c #323234",
"X c #534721",
"o c #415847",
"O c #545456",
"+ c #77584A",
"@ c #767678",
"# c #8B5E4A",
"$ c #A77E5D",
"% c #979799",
"& c #B7B7BB",
"* c #EEBE93",
"= c #FFE1AF",
"- c #D2D2D6",
"; c white",
/* pixels */
"oooooooooooooooooooooooooooooooo",
"ooooooooooooo.......oooooooooooo",
"ooooooooooo..OO@@@OO..oooooooooo",
"oooooooooo.O@@%%%%%@@O.ooooooooo",
"ooooooooo.O@%%%&&&%%%@O.oooooooo",
"oooooooo.O@%%%&&&&&%%%@O.ooooooo",
"ooooooo.O@%%%&&&&&&&%%%@O.oooooo",
"ooooooo.@@%%%&&&&&&&%%%@@.oooooo",
"oooooo.O@%%%%%&&&&&%%%%%@O.ooooo",
"oooooo.O@%%%%%%@...@@%%@O..ooooo",
"oooooo.O@%%%%%@.@%%OOOOO.%O.oooo",
"oooooo.O@@%@OO.@%&&&&&&%%@O.oooo",
"oooooo.O@@@O%&O@& @%%%%@@%.ooooo",
"oooooo.OO@.%OO&O&O      %%..oooo",
"oooooo.OOO.@..%O%&O    %;%O.oooo",
"oooooo.OOO.O..%.O%&&&%%;;%.ooooo",
"ooooooo.OOO.O@..=O@%%%;;&.oooooo",
"oooooooo.OOO..O.====%;;;%ooooooo",
"oooooooo.OOOO@O.***%;;-%oooooooo",
"ooooooo.O@%&@O.XXX%;;-%..ooooooo",
"oooooooo......O.O%;;-%.@O.oooooo",
"oooooooooo.@%.@O%;;-%O.XO.oooooo",
"oooooooooo.O.@.%;;-%O..XO.oooooo",
"ooooooooooo..%@;;-%O@O.XO.oooooo",
"oooooooooooX@.%@-%OO..@@O.oooooo",
"oooooooooooX#$O%@O.%@.@@O.oooooo",
"oooooooooooX+$$O%%@.@.@XO.oooooo",
"ooooooooooooXXX@...%O.@XO.oooooo",
"oooooooooooooXO..O....@XO.oooooo",
"oooooooooooooX+#$#Xooo.@.ooooooo",
"oooooooooooooX+#$$Xoooo.oooooooo",
"ooooooooooooooXXXXoooooooooooooo"
};
