/* XPM */
static char *e_1[] = {
/* columns rows colors chars-per-pixel */
"32 32 18 1 ",
"  c #2E1E22",
". c #323234",
"X c #534721",
"o c #6E5E2C",
"O c #415847",
"+ c #545456",
"@ c #77584A",
"# c #767678",
"$ c #8B5E4A",
"% c #9D704C",
"& c #A77E5D",
"* c #D7906E",
"= c #979799",
"- c #B7B7BB",
"; c #EEBE93",
": c #FFE1AF",
"> c #D2D2D6",
", c white",
/* pixels */
"OOOOOOOOOOOOOOOOOOOOOOOOOOOOOOOO",
"OOOOOOOOOOOOO.......OOOOOOOOOOOO",
"OOOOOOOOOOO..++###++..OOOOOOOOOO",
"OOOOOOOOOO.+##=====##+.OOOOOOOOO",
"OOOOOOOOO.+#===---===#+.OOOOOOOO",
"OOOOOOOO.+#===-----===#+.OOOOOOO",
"OOOOOOO.+#===-------===#+.OOOOOO",
"OOOOOOO.##===-------===##.OOOOOO",
"OOOOOO.+#=====-----=====#+.OOOOO",
"OO=OOO.+#..+##=====##+..#+.OOOOO",
"OO==OO.+.+=..+++++++..=+.+.OOOOO",
"OO=,=.#.+##==-------==##+.#.OOOO",
"OO=,-.#.++ +##=====##+ ++.#.OOOO",
"OO=,,=+.+=+           +=+.+.OOOO",
"OO=,,=..+#=+         +=#+...OOOO",
"OO=>,=...+#==-------==#+...OOOOO",
"OO=>,-.++..+##=====##+..++.OOOOO",
"OOO=,,=.+#.*;:::::::;*.#+.OOOOOO",
"OOO=,,=+...X%*;;;;;*%X...+.O...O",
"OOO=>,==--#+XXXXXXXXX+#--...+#.O",
"OOO=>,-==-+.+#=###=#+....+=##+.O",
"OOOO=,,....#=--===--=#.#=-+Xo+.O",
"OOOO=,,+==.#==#+++#==#.#oXoXo+.O",
"OOO.+#==+....++#=#++...#oXo+#+.O",
"OO.#==++...++..+++..++.#=-=#++.O",
"OOO...$$..+#-#+---+#-#.#==#Xo+.O",
"OOOOOOXXO.+=-.#=-=#.-=.#oXoXo+.O",
"OOOOOOOOOO.=.+.#=#.+.=.#=XoXo+.O",
"OOOOOOOOOOO.+-#...#-+.O.+=oX+.OO",
"OOOOOOOOOOOX$$@XOX@$$XOO.+=#.OOO",
"OOOOOOOOOOOX&&$XOX$&&XOOO...OOOO",
"OOOOOOOOOOOOXXXOOOXXXOOOOOOOOOOO"
};
