/* XPM */
static char *e_2[] = {
/* columns rows colors chars-per-pixel */
"32 32 17 1 ",
"  c #2E1E22",
". c #323234",
"X c #534721",
"o c #6E5E2C",
"O c #415847",
"+ c #545456",
"@ c #767678",
"# c #8B5E4A",
"$ c #9D704C",
"% c #A77E5D",
"& c #D7906E",
"* c #979799",
"= c #B7B7BB",
"- c #EEBE93",
"; c #FFE1AF",
": c #D2D2D6",
"> c white",
/* pixels */
"OOOOOOOOOOOOOOOOOOOOOOOOOOOOOOOO",
"OOOOOOOOOOOOO.......OOOOOOOOOOOO",
"OOOOOOOOOOO..++@@@++..OOOOOOOOOO",
"OOOOOOOOOO.+@@*****@@+.OOOOOOOOO",
"OOOOOOOOO.+@***===***@+.OOOOOOOO",
"OOOOOOOO.+@***=====***@+.OOOOOOO",
"OOOOOOO.+@***=======***@+.OOOOOO",
"OOOOOOO.@@***=======***@@.OOOOOO",
"OOOOOO.+@*****=====*****@+.OOOOO",
"OOOOOO..+@**@@...@******@+.OOOOO",
"OOOOO.+*.+++++**@.@*****@+.OOOOO",
"OOO*O.+@**======*@.++@*@@+.OOOOO",
"OOO**>.+@@****@ =@+=*+@@@+.OOOOO",
"OOO*:..        +=+=++*.@++.OOOOO",
"OOO*:.+       +=*+*..@.+++.OOOOO",
"OOOO*:.+@***===*+.*..+.+++.OOOOO",
"OOOO*::..+@@**@+;..@+.+++.OOOOOO",
"OOOOO*:::X&-;;;;;.+..+++.OOOOOOO",
"OOOOOO*:::X$&&---.+@++++.OOOOOOO",
"OOOOOOO*:::XXX.....+@=*@+.OOOOOO",
"OOOOOOOO*:.+@@.+@*@......OOOOOOO",
"OOOOOOOOO*.+@*.+oX==*@.OOOOOOOOO",
"OOOOOOOOOO..+*.+oXoXo@.OOOOOOOOO",
"OOOOOOOOOO.+@+.+oXoXo@.OOOOOOOOO",
"OOOOOOOOOO...+.+@*==*@.OOOOOOOOO",
"OOOOOOOOO.@.@*.+@*==*@.OOOOOOOOO",
"OOOOOOOOOO..@*.+oXoXo@.OOOOOOOOO",
"OOOOOOOOOOO.+*.+oXoX*+.OOOOOOOOO",
"OOOOOOOOOOOO....@Xo*+.OOOOOOOOOO",
"OOOOOOOOOOOOOOX#.**+.OOOOOOOOOOO",
"OOOOOOOOOOOOOOX%%...OOOOOOOOOOOO",
"OOOOOOOOOOOOOOOXXXXOOOOOOOOOOOOO"
};
