/* XPM */
static char *grave[] = {
/* columns rows colors chars-per-pixel */
"32 32 11 1 ",
"  c #197B30",
". c #415847",
"X c #874A0D",
"o c #A0410D",
"O c #A04D1F",
"+ c #A0611F",
"@ c #FF5D00",
"# c #00A651",
"$ c #FF8800",
"% c #FFB200",
"& c #FFF200",
/* pixels */
"................................",
"................................",
"................................",
"................................",
"................................",
"................................",
"............$$$$$$$$............",
"..........$$$$&&&&&&$$..........",
".........$$$&&%%%%%%&&$.........",
"........$$$&%%%%%%%%%%&$........",
"........$$&%%%%%%%%%%%&$........",
".......$$$&%%%%%%%%%%%%&$.......",
".......$$$&%%%%%%%%%%%%&$.......",
".......$$$&%%%%@@$$%%%%&$.......",
".......$$$&%%%%@$$$%%%%&$.......",
".......$$$&%%%%@@@@%%%%&$.......",
".......$$$&%%%%%%%%%%%%&$.......",
".......$$$&%$$$$%$$$$$%&$.......",
".......$$$&%%%%%%%%%%%%&$.......",
".......$$$&%$$$$$%$$%$%&$.......",
".......$$$&%%%%%%%%%%%%&$.......",
".......$$$&%$$%$$$%$$$%&$.......",
".......$$$&%%%%%%%%%%%%&$.......",
".......$$$&%$$$%$$$$%$%&$.......",
".......$$$&%%%%%%%%%%%%&$.......",
".......$$$&%%%%%%%%%%#%&$.......",
".......$$$&#%OO%%%%%o OO$.......",
"......OO$$o O+oO%%oOOo+oOo......",
".....ooOo+XooOooXoo+oOoXooo.....",
"................................",
"................................",
"................................"
};
