/* XPM */
static char *p_d0[] = {
/* columns rows colors chars-per-pixel */
"32 32 33 1 ",
"  c #151614",
". c #2E1E22",
"X c #373737",
"o c #433D33",
"O c #3A4B2C",
"+ c #464646",
"@ c #4E4E4E",
"# c #544D43",
"$ c #415847",
"% c #505140",
"& c #5F5F5F",
"* c #615847",
"= c #6D6C59",
"- c #647051",
"; c DimGray",
": c #6C6B6B",
"> c gray45",
", c #767676",
"< c #767678",
"1 c #837D60",
"2 c #878B6E",
"3 c #939A79",
"4 c #A4A377",
"5 c #9F9F9F",
"6 c #A49B85",
"7 c #B5B684",
"8 c #B7B7B7",
"9 c #B7B7BB",
"0 c #C4C1B0",
"q c gray85",
"w c gray86",
"e c #D9D9DD",
"r c white",
/* pixels */
"$$$$$$$$$$$$$$$$$$$$$$$$$$$$$$$$",
"$$$$$$$$$$$$$$$$$$$$$$$$$$$$$$$$",
"$$$$$$$$$$$$$::<9<::$$$$$$$$$$$$",
"$$$$$$$$$$$<9e9rrr9e9<$$$$$$$$$$",
"$$$$$$$$$<9errerrrerre9<$$$$$$$$",
"$$$$$$$$<rrere9ere9ererr<$$$$$$$",
"$$$$$$$$9er99w00000w99re9$$$$$$$",
"$$$$$$$<rr900wwwwwww009rr<$$$$$$",
"$$$$$$$9r900000000000009r9$$$$$$",
"$$$$$$<r90060060006006009r<$$$$$",
"$$$$$$<e06060060006006060e<$$$$$",
"$$$$$:690606006000600606096:$$$$",
"$$$$$:600067666666666760006:$$$$",
"$$$$$:600021147333741120006:$$$$",
"$$$$$:6000#..*47774*..#0006:$$$$",
"$$$$::60w0....17771....0w06::$$$",
"$$$$:6:0w0....17371....0w0:6:$$$",
"$$$$:6:000o..*4O-O4*..o000:66:$$",
"$$$$:6:000 %=4777774=% 006;66:$$",
"$$$$:6:000q O 3O3O3 O 000;6066:$",
"$$$$:66000,w         w006:X606:$",
"$$$$;6,60>r8q@>OOO>@w8006@X606:$",
"$$$$$ O60@Xqrrq>>>wrrq06w8X666:$",
"$$$$$ Oq6XX8qrrrrrrrw86rrr,66:$$",
"$$$$$$ ,,6X,,88qqq88,, 77w,;:$$$",
"$$$$$$$:rX@,888888888, 773 $$$$$",
"$$$$$$$$X@@8qqrrrrrq88 -3O $$$$$",
"$$$$$$$X@@88qrrrrrrq888   $$$$$$",
"$$$$$$$X@>8r88qqqqq8w88@@X$$$$$$",
"$$$$$$$$X>5qrrrrrrqq8@@@X$$$$$$$",
"$$$$$$$$$X>555555>>>@XXX$$$$$$$$",
"$$$$$$$$$$X+;;;&XXXXX$$$$$$$$$$$"
};
