/* XPM */
static char *p_d1[] = {
/* columns rows colors chars-per-pixel */
"32 32 33 1 ",
"  c #151614",
". c #181715",
"X c #2E1E22",
"o c #373737",
"O c #433D33",
"+ c #3A4B2C",
"@ c #464646",
"# c #4E4E4E",
"$ c #544D43",
"% c #415847",
"& c #505140",
"* c #615847",
"= c #6D6C59",
"- c #647051",
"; c DimGray",
": c #6C6B6B",
"> c gray45",
", c #767676",
"< c #767678",
"1 c #837D60",
"2 c #878B6E",
"3 c #939A79",
"4 c #A4A377",
"5 c #9F9F9F",
"6 c #A49B85",
"7 c #B5B684",
"8 c #B7B7B7",
"9 c #B7B7BB",
"0 c #C4C1B0",
"q c gray85",
"w c gray86",
"e c #D9D9DD",
"r c white",
/* pixels */
"%%%%%%%%%%%%%%%%%%%%%%%%%%%%%%%%",
"%%%%%%%%%%%%%::<9<::%%%%%%%%%%%%",
"%%%%%%%%%%%<9e9rrr9e9<%%%%%%%%%%",
"%%%%%%%%%<9errerrrerre9<%%%%%%%%",
"%%%%%%%%<rrere9ere9ererr<%%%%%%%",
"%%%%%%%%9er99w00000w99re9%%%%%%%",
"%%%%%%%<rr900wwwwwww009rr<%%%%%%",
"%%%%%%%9r900000000000009r9%%%%%%",
"%%%%%%<r90060060006006009r<%%%%%",
"%%%%%%<e06060060006006060e<%%%%%",
"%%%%%:690606006000600606096:%%%%",
"%%%%%:600067663666366760006:%%%%",
"%%%%%:600021147333741120006:%%%%",
"%%%%%:6000$XX*47774*XX$0006:%%%%",
"%%%%::60w0XXXX17771XXXX0w06::%%%",
"%%%%:6:0w0XXXX17371XXXX0w0:6:%%%",
"%%%:66:000OXX$4+-+4*XXO000:66:%%",
"%%%:66:600.&=4777774=& 006:66:%%",
"%%%:60:600q.+ 3+3+3 + w006:06:%%",
"%%%:606:00,w..       w>00:606:%%",
"%%%:606o60r8q#>+++>#w8r06o606:%%",
"%%%:66o>60oqrrq>>>wrrqo06>o66:%%",
"%%%%;6owr6o8wrrrrrrrq8o6rwo6:%%%",
"%%%%% +wr8o>>88qww88>>o8rw+ %%%%",
"%%%%% 77+ #>888888888># +77 %%%%",
"%%%%% 73 ##88wrrrrrq88## 37 %%%%",
"%%%%%%  ##88wrrrrrrrw88##  %%%%%",
"%%%%%%%o#>8q88qqqqq88q8>#o%%%%%%",
"%%%%%%%%o>>qqrrrrrrrqq>>o%%%%%%%",
"%%%%%%%%%o>>555555555>>o%%%%%%%%",
"%%%%%%%%%%oo;;;ooo;;;oo%%%%%%%%%",
"%%%%%%%%%%%%@@@%%%@@@%%%%%%%%%%%"
};
