/* XPM */
static char *p_d2[] = {
/* columns rows colors chars-per-pixel */
"32 32 33 1 ",
"  c #151614",
". c #2E1E22",
"X c #373737",
"o c #433D33",
"O c #3A4B2C",
"+ c #464646",
"@ c #4E4E4E",
"# c #544D43",
"$ c #415847",
"% c #505140",
"& c #5F5F5F",
"* c #615847",
"= c #6D6C59",
"- c #647051",
"; c DimGray",
": c #6C6B6B",
"> c gray45",
", c #767676",
"< c #767678",
"1 c #837D60",
"2 c #878B6E",
"3 c #939A79",
"4 c #A4A377",
"5 c #9F9F9F",
"6 c #A49B85",
"7 c #B5B684",
"8 c #B7B7B7",
"9 c #B7B7BB",
"0 c #C4C1B0",
"q c gray85",
"w c gray86",
"e c #D9D9DD",
"r c white",
/* pixels */
"$$$$$$$$$$$$$$$$$$$$$$$$$$$$$$$$",
"$$$$$$$$$$$$$$$$$$$$$$$$$$$$$$$$",
"$$$$$$$$$$$$$::<9<::$$$$$$$$$$$$",
"$$$$$$$$$$$<9e9rrr9e9<$$$$$$$$$$",
"$$$$$$$$$<9errerrrerre9<$$$$$$$$",
"$$$$$$$$<rrere9ere9ererr<$$$$$$$",
"$$$$$$$$9er99w00000w99re9$$$$$$$",
"$$$$$$$<rr900wwwwwww009rr<$$$$$$",
"$$$$$$$9r900000000000009r9$$$$$$",
"$$$$$$<r90060060006006009r<$$$$$",
"$$$$$$<e06060060006006060e<$$$$$",
"$$$$$:690606006000600606096:$$$$",
"$$$$$:600067666666666760006:$$$$",
"$$$$$:600021147333741120006:$$$$",
"$$$$$:6000#..*47774*..#0006:$$$$",
"$$$$::60w0....17771....0w06::$$$",
"$$$$:6:0w0....17371....0w0:6:$$$",
"$$$:66:000o..#4O-O4*..o000:6:$$$",
"$$$:66:600 %=4777774=% 000;6:$$$",
"$$:6606:000 O 3O3O3 O w000;6:$$$",
"$$:606X:600w         w>00066:$$$",
"$$:606X@6008q@>OOO>@w8r>06>6:$$$",
"$$:666X8q60wrrw>>>wrrqX@06O $$$$",
"$$$:66>rrr68qrrrrrrrw8XX6wO $$$$",
"$$$$::>w77 >>88wqq88<<X6>< $$$$$",
"$$$$$$ 377 >888888888>@Xr:$$$$$$",
"$$$$$$ O3- 88wrrrrrqw8@@X$$$$$$$",
"$$$$$$$   888wrrrrrrw88@@X$$$$$$",
"$$$$$$$X@@88q8qqqqq88r8>@X$$$$$$",
"$$$$$$$$X@@@8qqrrrrrrw5>X$$$$$$$",
"$$$$$$$$$XXX@>>>555555>X$$$$$$$$",
"$$$$$$$$$$$$XXXXX&;;;+X$$$$$$$$$"
};
