/* XPM */
static char *p_l1[] = {
/* columns rows colors chars-per-pixel */
"32 32 30 1 ",
"  c #151614",
". c #2E1E22",
"X c #373737",
"o c #3A4B2C",
"O c #464646",
"+ c #4E4E4E",
"@ c #415847",
"# c #5F5F5F",
"$ c #615847",
"% c #647051",
"& c DimGray",
"* c #6C6B6B",
"= c gray45",
"- c #767676",
"; c #767678",
": c #7C7C7C",
"> c #837D60",
", c #999B69",
"< c #939A79",
"1 c #A4A377",
"2 c #9F9F9F",
"3 c #A49B85",
"4 c #B5B684",
"5 c #B7B7B7",
"6 c #B7B7BB",
"7 c #C4C1B0",
"8 c gray85",
"9 c gray86",
"0 c #D9D9DD",
"q c white",
/* pixels */
"@@@@@@@@@@@@@@@@@@@@@@@@@@@@@@@@",
"@@@@@@@@@@@;66;;*****@@@@@@@@@@@",
"@@@@@@@@@@;0qq60q6733**@@@@@@@@@",
"@@@@@@@@@*;qq06qq0;9773*@@@@@@@@",
"@@@@@@@@*377977006q;9773*@@@@@@@",
"@@@@@@@*3777997770q097773*@@@@@@",
"@@@@@@@*377779999966;7773*@@@@@@",
"@@@@@@*377777777770q677773*@@@@@",
"@@@@@@*3737737737770677773*@@@@@",
"@@@@@@*3737737737776;77777*@@@@@",
"@@@@@@*373773773737;7777773*@@@@",
"@@@@@@@*3<33433373777777773*@@@@",
"@@@@@@@@ %<41>>137777777773*@@@@",
"@@@@@@@@ %41$..$77737777777*@@@@",
"@@@@@@@@ <4>....797377777973*@@@",
"@@@@@@@@ <4>....797379997773*@@@",
"@@@@@@@@ %o1$..$777377977777*@@@",
"@@@@@@@@@ %<1>>77773377773773*@@",
"@@@@@@@@@@ o ,o77773*77773773*@@",
"@@@@@@@@@@@    77739*37773773*@@",
"@@@@@@@@@@@ oo=773q=&37773773*@@",
"@@@@@@@@@@X+5qq73q22=&373*773*@@",
"@@@@@@@@@@-588qq392=+*333*733*@@",
"@@@@@@@@@@@--555-X+q9X*3*333*@@@",
"@@@@@@@@@@@-55885-9q9-5&*333*@@@",
"@@@@@@@@@@-558qq8 44< 9q*33*@@@@",
"@@@@@@@@@--588qq5 44% 59-**@@@@@",
"@@@@@@@@@-5--555q=   ++--@@@@@@@",
"@@@@@@@@@X-588qq222=+++5-@@@@@@@",
"@@@@@@@@@@XX+==2222==+XX@@@@@@@@",
"@@@@@@@@@@@@XXX::&#XXX@@@@@@@@@@",
"@@@@@@@@@@@@@@@OOOO@@@@@@@@@@@@@"
};
