/* XPM */
static char *p_r0[] = {
/* columns rows colors chars-per-pixel */
"32 32 27 1 ",
"  c #151614",
". c #2E1E22",
"X c #373737",
"o c #3A4B2C",
"O c #464646",
"+ c #4E4E4E",
"@ c #415847",
"# c #615847",
"$ c #647051",
"% c #6C6B6B",
"& c gray45",
"* c #767678",
"= c #7C7C7C",
"- c #837D60",
"; c #999B69",
": c #939A79",
"> c #A4A377",
", c #9F9F9F",
"< c #A49B85",
"1 c #B5B684",
"2 c #B7B7B7",
"3 c #B7B7BB",
"4 c #C4C1B0",
"5 c gray85",
"6 c gray86",
"7 c #D9D9DD",
"8 c white",
/* pixels */
"@@@@@@@@@@@@@@@@@@@@@@@@@@@@@@@@",
"@@@@@@@@@@@@@@@@@@@@@@@@@@@@@@@@",
"@@@@@@@@@@@@%%%%%**33*@@@@@@@@@@",
"@@@@@@@@@@%%<<43873887*@@@@@@@@@",
"@@@@@@@@@%<446*7883788*%@@@@@@@@",
"@@@@@@@@%<446*837744644<%@@@@@@@",
"@@@@@@@%<444678744466444<%@@@@@@",
"@@@@@@@%<444*33666664444<%@@@@@@",
"@@@@@@%<44443874444444444<%@@@@@",
"@@@@@@%<444437444<44<44<4<%@@@@@",
"@@@@@@%44444*3444<44<44<4<%@@@@@",
"@@@@@%<444444*4<4<44<44<4<%@@@@@",
"@@@@@%<44444444<4<<<1<<:<%@@@@@@",
"@@@@@%<444444444<>-->1:$ @@@@@@@",
"@@@@@%<4444444444#..#>1$ @@@@@@@",
"@@@@%<4444444<464....-1: @@@@@@@",
"@@@%<<4644664<464....-1: @@@@@@@",
"@@@%<44446644<444#..#>o$ @@@@@@@",
"@@%<<44<4444<<444>-->:$ @@@@@@@@",
"@@%<<44<4444%<444:o; o @@@@@@@@@",
"@@%<<44<444<%6444     @@@@@@@@@@",
"@@%<<4<<<4<%&&<44&&oo @@@@@@@@@@",
"@@%<<<%<<<%&,,<448882+X@@@@@@@@@",
"@@%<<<%<<<%+&,<4288662&@@@@@@@@@",
"@@@%<<<%<%682+XX&222&&@@@@@@@@@@",
"@@@%<<<%%o168&&226622=&@@@@@@@@@",
"@@@@%<%@ $11$ &=6888622&@@@@@@@@",
"@@@@@%@@& $$ +&&228886=&@@@@@@@@",
"@@@@@@@&2&  +&&,,8222&2X@@@@@@@@",
"@@@@@@@&6++++&&&,,8886&X@@@@@@@@",
"@@@@@@@@XXXX+++&&,,,==O@@@@@@@@@",
"@@@@@@@@@@@@XXXXXXXOOO@@@@@@@@@@"
};
