/* XPM */
static char *p_r1[] = {
/* columns rows colors chars-per-pixel */
"32 32 30 1 ",
"  c #151614",
". c #2E1E22",
"X c #373737",
"o c #3A4B2C",
"O c #464646",
"+ c #4E4E4E",
"@ c #415847",
"# c #5F5F5F",
"$ c #615847",
"% c #647051",
"& c DimGray",
"* c #6C6B6B",
"= c gray45",
"- c #767676",
"; c #767678",
": c #7C7C7C",
"> c #837D60",
", c #999B69",
"< c #939A79",
"1 c #A4A377",
"2 c #9F9F9F",
"3 c #A49B85",
"4 c #B5B684",
"5 c #B7B7B7",
"6 c #B7B7BB",
"7 c #C4C1B0",
"8 c gray85",
"9 c gray86",
"0 c #D9D9DD",
"q c white",
/* pixels */
"@@@@@@@@@@@@@@@@@@@@@@@@@@@@@@@@",
"@@@@@@@@@@@@*****;;66;@@@@@@@@@@",
"@@@@@@@@@@**3376q06qq0;@@@@@@@@@",
"@@@@@@@@@*3779;0qq60qq;*@@@@@@@@",
"@@@@@@@@*3779;q600779773*@@@@@@@",
"@@@@@@@*377790q0777997773*@@@@@@",
"@@@@@@@*3777;669999977773*@@@@@@",
"@@@@@@*377776q077777777773*@@@@@",
"@@@@@@*3777760777377377373*@@@@@",
"@@@@@@*77777;6777377377373*@@@@@",
"@@@@@*3777777;737377377373*@@@@@",
"@@@@@*37777777737333433<3*@@@@@@",
"@@@@@*377777777731>>14<% @@@@@@@",
"@@@@@*77777773777$..$14% @@@@@@@",
"@@@@*379777773797....>4< @@@@@@@",
"@@@@*377799973797....>4< @@@@@@@",
"@@@@*777779773777$..$1o% @@@@@@@",
"@@@*37737777337777>>1<% @@@@@@@@",
"@@@*37737777&37777o, o @@@@@@@@@",
"@@@*37737773&93777    @@@@@@@@@@",
"@@@*37737773&=q377=oo @@@@@@@@@@",
"@@@*377*373*=22q37qq5+X@@@@@@@@@",
"@@@*337*333*+=283qq995-@@@@@@@@@",
"@@@@*333*3*X8q+X-555--@@@@@@@@@@",
"@@@@*333&&5-9q9-58855-@@@@@@@@@@",
"@@@@@*33&q9 <44 8qq855-@@@@@@@@@",
"@@@@@@**-85 %44 5qq895--@@@@@@@@",
"@@@@@@@@--++   =q555--5-@@@@@@@@",
"@@@@@@@@-5+++=222qq895-X@@@@@@@@",
"@@@@@@@@@XX+==2222==+XX@@@@@@@@@",
"@@@@@@@@@@@XXX#&::XXX@@@@@@@@@@@",
"@@@@@@@@@@@@@@OOOO@@@@@@@@@@@@@@"
};
