/* XPM */
static char *tree_bg[] = {
/* columns rows colors chars-per-pixel */
"32 32 5 1 ",
"  c #2B1502",
". c #4F0D02",
"X c #472102",
"o c #5A2C07",
"O c #415847",
/* pixels */
"OOOOOOOOOOOOOOOOOOOOOOOOOOOOOOOO",
"OO XOO oOXOOOOX OXOXOOOOOoXOOOOO",
"OOOXOOOXOoOOOXXOOXO OOoOoX OOOOO",
"OOO OOOoX OXOOXo  OOoOO X OOXoOO",
"OXO XX O OOXOo XOOOOX   OOOOXOOO",
"OXOOOO XOOOOo OOOOOOO OOoOOo OOO",
"O oOOOO OOOOXOXXOOOOXoOOXOOXOX O",
"OO oOOo XOOOXOOOoOOo OXoOOO OOXO",
"OOO   XOXOOX OO  OOXOX OOXXOOOOO",
"OOOOXOOO XO OOOO XOXOoOOOOXOOoXO",
"OOOOoOOO XXXOOOOO.oOOoOOOOoOo OO",
"OXXOoOOOO XOOOOOOooX XXoOOoX OXO",
"OO XXOOOO  OOOOO X XOOOXoo  OOXO",
"OOOXX OOOX XOOOo X OOO Xo OOOXXO",
"OX   X OOOXXXOo OXOOO X X OOOOXO",
"OOOOO XXOO Xo XOOoOOOXoXOOOOOOXO",
"OOOOOOXXXo Xoo OOX o oXOOOO  XoO",
"OOOOOOOO XX Xoo OOOXXo OOO oOOOO",
"OOOOOOOOOOOX XX OOO X X oooOOOOO",
"OOOOOOOOOOOOO XX OoX  OOOOOOOOOO",
"OOOOOOOOOOOOO XX OX  OOOOOOOOOOO",
"OOOOOOOOOOOOO  X O XOOOOOOOOOOOO",
"OOOOOOOOOOOOOOXo  oXOOOOOOOOOOOO",
"OOOOOOOOOOOOOO oX oXOOOOOOOOOOOO",
"OOOOOOOOOOOOOO o Xo OOOOOOOOOOOO",
"OOOOOOOOOOOOOO o XX OOOOOOOOOOOO",
"OOOOOOOOOOOOOO o XX OOOOOOOOOOOO",
"OOOOOOOOOOOOOOXoXo oOOOOOOOOOOOO",
"OOOOOOOOOOOOOO XXo XOOOOOOOOOOOO",
"OOOOOOOOOOOOOO X o XOOOOOOOOOOOO",
"OOOOOOOOOOOOOO XXo X OOOOOOOOOOO",
"OOOOOOOOOOOOOOOOOOOOOOOOOOOOOOOO"
};
